# AST/ASF file generated using VICON BodyLanguage
# -----------------------------------------------
:version 1.10
:name VICON
:units
  mass 1.0
  length 0.45
  angle deg
:documentation
   .ast/.asf automatically generated from VICON data using
   VICON BodyBuilder and BodyLanguage model FoxedUp or BRILLIANT.MOD
:root
   order TX TY TZ RX RY RZ
   axis XYZ
   position 0 0 0  
   orientation 0 0 0 
:bonedata
  begin
     id 1 
     name lhipjoint
     direction 0.690799 -0.707083 0.151096 
     length 2.54797 
     axis 0 0 0  XYZ
  end
  begin
     id 2 
     name lfemur
     direction 0.34202 -0.939693 0  
     length 7.21646  
     axis 0 0 20  XYZ
    dof rx ry rz
    limits (-160.0 20.0)
           (-70.0 70.0)
           (-60.0 70.0)
  end
  begin
     id 3 
     name ltibia
     direction 0.34202 -0.939693 0   
     length 8.16759   
     axis 0 0 20   XYZ
    dof rx
    limits (-10.0 170.0)
  end
  begin
     id 4 
     name lfoot
     direction 0.0487203 -0.133858 0.989802   
     length 1.93375   
     axis -90 7.62852e-016 20   XYZ
    dof rx rz
    limits (-45.0 90.0)
           (-70.0 20.0)
  end
  begin
     id 5 
     name ltoes
     direction 1.53453e-011 -4.21783e-011 1   
     length 0.979747   
     axis -90 7.62852e-016 20   XYZ
    dof rx
    limits (-90.0 20.0)
  end
  begin
     id 6 
     name rhipjoint
     direction -0.694693 -0.703425 0.150315   
     length 2.56122  
     axis 0 0 0  XYZ 
  end
  begin
     id 7 
     name rfemur
     direction -0.34202 -0.939693 0   
     length 7.36786   
     axis 0 0 -20   XYZ
    dof rx ry rz
    limits (-160.0 20.0)
           (-70.0 70.0)
           (-70.0 60.0)
  end
  begin
     id 8 
     name rtibia
     direction -0.34202 -0.939693 0   
     length 8.07288   
     axis 0 0 -20   XYZ
    dof rx
    limits (-10.0 170.0)
 end
 begin
     id 9 
     name rfoot
     direction -0.0428397 -0.117701 0.992125   
     length 1.88295  
     axis -90 -7.62852e-016 -20   XYZ
    dof rx rz
    limits (-45.0 90.0)
           (-20.0 70.0)
  end
  begin
     id 10 
     name rtoes
     direction -1.53456e-011 -4.2187e-011 1   
     length 0.955578   
     axis -90 -7.62852e-016 -20   XYZ
    dof rx
    limits (-90.0 20.0)
  end
  begin
     id 11 
     name lowerback
     direction 0.0288145 0.999398 -0.0193241   
     length 1.92149   
     axis 0 0 0   XYZ
    dof rx ry rz
    limits (-20.0 45.0)
           (-30.0 30.0)
           (-30.0 30.0)
  end
  begin
     id 12 
     name upperback
     direction 0.0233784 0.998099 0.0570278   
     length 1.90435   
     axis 0 0 0   XYZ
    dof rx ry rz
    limits (-20.0 45.0)
           (-30.0 30.0)
           (-30.0 30.0)
  end
  begin
     id 13 
     name thorax
     direction 0.0096694 0.997833 0.0650817   
     length 1.9111   
     axis 0 0 0   XYZ
    dof rx ry rz
    limits (-20.0 45.0)
           (-30.0 30.0)
           (-30.0 30.0)
  end
  begin
     id 14 
     name lowerneck
     direction 0.00516803 0.999916 0.0118722   
     length 1.74664   
     axis 0 0 0   XYZ
    dof rx ry rz
    limits (-20.0 45.0)
           (-30.0 30.0)
           (-30.0 30.0)
  end
  begin
     id 15 
     name upperneck
     direction -0.0510851 0.996117 -0.071696   
     length 1.68498   
     axis 0 0 0   XYZ
    dof rx ry rz
    limits (-20.0 45.0)
           (-30.0 30.0)
           (-30.0 30.0)
  end
  begin
     id 16
     name head
     direction -0.019188 0.999436 -0.0275702  
     length 1.83483  
     axis 0 0 0   XYZ
    dof rx ry rz
    limits (-20.0 45.0)
           (-30.0 30.0)
           (-30.0 30.0)
  end
  begin
     id 17 
     name lclavicle
     direction 0.967006 0.248456 -0.0562957  
     length 3.39395  
     axis 0 0 0   XYZ
    dof ry rz
    limits (-20.0 10.0)
           (0.0 20.0)
  end
  begin
     id 18 
     name lhumerus
     direction 1 -4.48962e-011 -5.62711e-019   
     length 5.24318   
     axis 180 -30 -90   XYZ
    dof rx ry rz
    limits (-60.0 90.0)
           (-90.0 90.0)
           (-90.0 90.0)
  end
  begin
     id 19
     name lradius
     direction 1 -4.48966e-011 7.90625e-027   
     length 2.98999   
     axis 180 -30 -90   XYZ
    dof rx
    limits (-10.0 170.0)
  end
  begin
     id 20
     name lwrist
     direction 1 -4.48959e-011 1.61068e-026   
     length 1.49499   
     axis -9.31229e-015 90 90   XYZ
    dof ry
    limits (-180.0 0.0)
 end
  begin
     id 21 
     name lhand
     direction 1 -4.49017e-011 3.22136e-026   
     length 0.726745   
     axis -2.0555e-014 90 90   XYZ
    dof rx rz
    limits (-90.0 90.0)
           (-45.0 45.0)
  end
  begin
     id 22 
     name lfingers
     direction 1 -4.4898e-011 6.44272e-026   
     length 0.58592   
     axis -4.11101e-014 90 90   XYZ
    dof rx
    limits (0.0 90.0)
  end
  begin
     id 23
     name lthumb
     direction 0.707107 -6.34922e-011 0.707107   
     length 0.841268   
     axis -90 45 2.85299e-015   XYZ
    dof rx rz
    limits (-45.0 45.0)
           (-45.0 45.0)
  end
  begin
     id 24 
     name rclavicle
     direction -0.972232 0.230238 0.0419005   
     length 3.40416  
     axis 0 0 0   XYZ 
    dof ry rz
    limits (-10.0 20.0)
           (-20.0 0.0)
  end
  begin
     id 25 
     name rhumerus
     direction -1 -4.48976e-011 2.48487e-027  
     length 5.37045   
     axis 180 30 90   XYZ
    dof rx ry rz
    limits (-90.0 60.0)
           (-90.0 90.0)
           (-90.0 90.0)
  end
  begin
     id 26 
     name rradius
     direction -1 -4.48942e-011 7.87951e-027   
     length 2.92792   
     axis 180 30 90   XYZ
    dof rx
    limits (-10.0 170.0)
  end
  begin
     id 27 
     name rwrist
     direction -1 -4.48969e-011 1.61068e-026   
     length 1.46396   
     axis -9.31229e-015 -90 -90   XYZ
    dof ry
    limits (-180.0 0.0)
  end
  begin
     id 28
     name rhand
     direction -1 -4.49043e-011 3.22136e-026   
     length 0.784497   
     axis -2.0555e-014 -90 -90   XYZ
    dof rx rz
    limits (-90.0 90.0)
           (-45.0 45.0)
  end
  begin
     id 29
     name rfingers
     direction -1 -4.48823e-011 6.44272e-026   
     length 0.632482   
     axis -4.11101e-014 -90 -90   XYZ
    dof rx
    limits (0.0 90.0)
  end
  begin
     id 30
     name rthumb
     direction -0.707107 -6.34923e-011 0.707107   
     length 0.908121   
     axis -90 -45 -2.85299e-015   XYZ
    dof rx rz
    limits (-45.0 45.0)
           (-45.0 45.0)
  end
:hierarchy
  begin
    root lhipjoint rhipjoint lowerback
    lhipjoint lfemur
    lfemur ltibia
    ltibia lfoot
    lfoot ltoes
    rhipjoint rfemur
    rfemur rtibia
    rtibia rfoot
    rfoot rtoes
    lowerback upperback
    upperback thorax
    thorax lowerneck lclavicle rclavicle
    lowerneck upperneck
    upperneck head
    lclavicle lhumerus
    lhumerus lradius
    lradius lwrist
    lwrist lhand lthumb
    lhand lfingers
    rclavicle rhumerus
    rhumerus rradius
    rradius rwrist
    rwrist rhand rthumb
    rhand rfingers
  end

#!OML:ASF E:\Style6\Style6.ASF
:FULLY-SPECIFIED
:DEGREES
1492
root 0.310946 18.3001 0.341072 9.79887 -3.85427 -3.09332
lowerback -5.56223 -0.26501 2.99335
upperback -2.97941 -0.516189 2.71584
thorax 0.0500203 -0.273252 1.08337
lowerneck -8.24318 0.815487 3.29153
upperneck 10.7239 1.49866 -6.935
head 4.63891 0.451056 -2.58795
rclavicle -1.18525e-014 3.4191e-014
rhumerus -35.552 -6.4082 -76.6004
rradius 44.3546
rwrist 25.5519
rhand -3.86381 9.20943
rfingers 7.12502
rthumb 21.8847 -19.5729
lclavicle -1.18525e-014 3.4191e-014
lhumerus -35.0374 12.603 81.616
lradius 23.7413
lwrist -17.7865
lhand -7.2797 15.3963
lfingers 7.12502
lthumb 18.6018 44.5269
rfemur 0 0 0
rtibia 0
rfoot 0 0
rtoes 0
lfemur -13.3154 -24.6532 -12.9874
ltibia 17.4773
lfoot -6.10947 28.4961
ltoes -8.88117
1493
root 0.313084 18.2999 0.339373 9.76491 -3.86287 -3.12128
lowerback -5.54873 -0.276615 3.03707
upperback -2.9685 -0.533677 2.74116
thorax 0.0534326 -0.282226 1.08405
lowerneck -8.2121 0.819548 3.25465
upperneck 10.6237 1.49998 -6.89923
head 4.60262 0.454277 -2.5699
rclavicle -1.6524e-015 -2.70347e-014
rhumerus -35.2773 -5.8428 -77.015
rradius 43.9637
rwrist 21.6001
rhand -7.22226 10.9268
rfingers 7.12502
rthumb 18.6571 -18.1985
lclavicle -1.6524e-015 -2.70347e-014
lhumerus -34.9552 12.2608 81.9015
lradius 24.1258
lwrist -17.2978
lhand -7.36789 15.6916
lfingers 7.12502
lthumb 18.517 44.8303
rfemur 0 0 0
rtibia 0
rfoot 0 0
rtoes 0
lfemur -13.2634 -24.661 -12.9748
ltibia 17.4449
lfoot -6.31567 28.4942
ltoes -8.08516
1494
root 0.31511 18.2997 0.337513 9.76456 -3.85014 -3.0643
lowerback -5.54266 -0.290577 3.00368
upperback -2.99716 -0.549173 2.73316
thorax 0.020787 -0.290099 1.09384
lowerneck -8.16127 0.812762 3.24911
upperneck 10.563 1.48823 -6.89102
head 4.57475 0.450514 -2.56674
rclavicle -1.94064e-014 4.77083e-015
rhumerus -35.0915 -5.54691 -77.2292
rradius 44.4523
rwrist 20.3822
rhand -7.58057 10.7269
rfingers 7.12502
rthumb 18.3124 -18.4311
lclavicle -1.94064e-014 4.77083e-015
lhumerus -34.9222 11.959 82.1402
lradius 24.4939
lwrist -16.8658
lhand -7.4317 15.7486
lfingers 7.12502
lthumb 18.4556 44.8931
rfemur 0 0 0
rtibia 0
rfoot 0 0
rtoes 0
lfemur -13.2654 -24.689 -13.0392
ltibia 17.4271
lfoot -6.54022 28.5163
ltoes -7.30563
1495
root 0.31646 18.3001 0.334457 9.81529 -3.80179 -2.9953
lowerback -5.56993 -0.307675 2.94227
upperback -3.03212 -0.56893 2.72502
thorax 0.000532995 -0.299694 1.11878
lowerneck -8.17788 0.795197 3.26891
upperneck 10.5523 1.46315 -6.90868
head 4.5732 0.437785 -2.57704
rclavicle 1.84994e-014 -1.98785e-014
rhumerus -34.8809 -5.32467 -77.3919
rradius 45.0561
rwrist 19.4302
rhand -7.29297 10.2263
rfingers 7.12502
rthumb 18.589 -18.9055
lclavicle 1.84994e-014 -1.98785e-014
lhumerus -34.8042 11.7365 82.3479
lradius 24.7066
lwrist -16.6127
lhand -7.52409 15.5567
lfingers 7.12502
lthumb 18.3667 44.7097
rfemur 0 0 0
rtibia 0
rfoot 0 0
rtoes 0
lfemur -13.3555 -24.665 -13.0841
ltibia 17.4216
lfoot -6.39328 28.4639
ltoes -7.72689
1496
root 0.317141 18.3001 0.330321 9.85891 -3.76369 -2.97901
lowerback -5.59337 -0.321113 2.94065
upperback -3.0502 -0.587175 2.72374
thorax -0.00507728 -0.308944 1.11734
lowerneck -8.20751 0.777073 3.25388
upperneck 10.5461 1.43811 -6.89509
head 4.57478 0.425238 -2.57189
rclavicle -9.56651e-015 3.10104e-014
rhumerus -34.6535 -5.24832 -77.5007
rradius 45.6241
rwrist 18.9474
rhand -7.16404 9.69243
rfingers 7.12502
rthumb 18.7131 -19.4275
lclavicle -9.56651e-015 3.10104e-014
lhumerus -34.6289 11.5615 82.5193
lradius 24.8334
lwrist -16.3743
lhand -7.61061 15.4205
lfingers 7.12502
lthumb 18.2835 44.5812
rfemur 0 0 0
rtibia 0
rfoot 0 0
rtoes 0
lfemur -13.4324 -24.6577 -13.0621
ltibia 17.3952
lfoot -6.31001 28.4357
ltoes -7.76095
1497
root 0.31795 18.2996 0.32694 9.85443 -3.73793 -3.00866
lowerback -5.55155 -0.322746 2.98988
upperback -3.0625 -0.589104 2.72677
thorax -0.0415811 -0.310809 1.09317
lowerneck -8.28545 0.773417 3.3023
upperneck 10.6329 1.43326 -6.92227
head 4.61467 0.420596 -2.58934
rclavicle -2.2239e-015 1.11319e-014
rhumerus -34.4351 -5.32769 -77.5642
rradius 46.0276
rwrist 18.6649
rhand -7.24536 9.45229
rfingers 7.12502
rthumb 18.6348 -19.6751
lclavicle -2.2239e-015 1.11319e-014
lhumerus -34.4904 11.1726 82.7634
lradius 25.0626
lwrist -15.9022
lhand -7.79258 15.5458
lfingers 7.12502
lthumb 18.1084 44.7228
rfemur 0 0 0
rtibia 0
rfoot 0 0
rtoes 0
lfemur -13.434 -24.6515 -13.013
ltibia 17.3594
lfoot -6.48908 28.377
ltoes -7.05225
1498
root 0.318828 18.2993 0.326437 9.85345 -3.74605 -3.01404
lowerback -5.52028 -0.314279 2.98771
upperback -3.09117 -0.575134 2.74552
thorax -0.0882769 -0.3042 1.11483
lowerneck -8.28868 0.75465 3.30696
upperneck 10.6356 1.41147 -6.95711
head 4.61512 0.407906 -2.60239
rclavicle -1.76421e-015 8.74653e-015
rhumerus -34.2642 -5.34503 -77.6074
rradius 46.3537
rwrist 18.2329
rhand -7.34647 9.43022
rfingers 7.12502
rthumb 18.5376 -19.7065
lclavicle -1.76421e-015 8.74653e-015
lhumerus -34.3722 10.9195 82.9834
lradius 25.2548
lwrist -15.5299
lhand -7.83306 15.5719
lfingers 7.12502
lthumb 18.0695 44.7526
rfemur 0 0 0
rtibia 0
rfoot 0 0
rtoes 0
lfemur -13.4056 -24.6299 -13.012
ltibia 17.3156
lfoot -6.58552 28.3518
ltoes -6.59296
1499
root 0.320489 18.3008 0.327339 9.84627 -3.73468 -2.95932
lowerback -5.52168 -0.306019 2.9425
upperback -3.11782 -0.560998 2.74186
thorax -0.11443 -0.296951 1.13726
lowerneck -8.18283 0.734971 3.29492
upperneck 10.5187 1.38395 -6.9723
head 4.56004 0.396526 -2.60595
rclavicle 4.74598e-015 -7.15625e-015
rhumerus -34.1484 -5.3779 -77.6526
rradius 46.6971
rwrist 17.9176
rhand -7.34507 9.35182
rfingers 7.12502
rthumb 18.5389 -19.7848
lclavicle 4.74598e-015 -7.15625e-015
lhumerus -34.2483 10.8192 83.1275
lradius 25.3847
lwrist -15.3744
lhand -7.66355 15.5364
lfingers 7.12502
lthumb 18.2325 44.7019
rfemur 0 0 0
rtibia 0
rfoot 0 0
rtoes 0
lfemur -13.3674 -24.6977 -13.0823
ltibia 17.265
lfoot -6.38987 28.3822
ltoes -7.21721
